<?xml version="1.0" encoding="iso-8859-1"?>
<!-- Uploaded to: SVG Repo, www.svgrepo.com, Generator: SVG Repo Mixer Tools -->
<svg fill="#000000" height="800px" width="800px" version="1.1" id="Layer_1" xmlns="http://www.w3.org/2000/svg" xmlns:xlink="http://www.w3.org/1999/xlink" 
	 viewBox="0 0 472.615 472.615" xml:space="preserve">
<g>
	<g>
		<path d="M115.242,247.073c0.583,24.865,3.058,49.278,7.625,72.778c0.939,0,1.85,0.145,2.78,0.205
			c1.189,0.079,2.392,0.091,3.557,0.265c0.44,0.064,0.855,0.209,1.291,0.287c5.75,1.037,11.192,3.149,15.981,6.287
			c0.273,0.178,0.508,0.41,0.777,0.594c1.421,0.978,2.817,1.993,4.113,3.138c2.206,1.948,4.133,4.199,5.912,6.586
			c22.098-7.12,45.088-11.149,68.265-12.103v-78.037H115.242z"/>
	</g>
</g>
<g>
	<g>
		<path d="M165.325,357.238c0.25,1.883,0.58,3.754,0.58,5.672c0,2.037-0.187,4.04-0.47,6.02c-0.086,0.598-0.216,1.179-0.326,1.77
			c-0.263,1.407-0.587,2.791-0.985,4.155c-0.179,0.612-0.359,1.219-0.565,1.821c-0.496,1.455-1.076,2.869-1.722,4.258
			c-0.185,0.398-0.337,0.809-0.535,1.202c-0.884,1.756-1.882,3.447-2.993,5.063c-0.231,0.337-0.499,0.641-0.74,0.971
			c-0.919,1.259-1.895,2.469-2.946,3.623c-0.417,0.457-0.852,0.896-1.289,1.335c-1,1.007-2.051,1.957-3.15,2.864
			c-0.455,0.376-0.894,0.762-1.365,1.119c-0.242,0.183-0.456,0.396-0.702,0.574c20.651,42.868,48.172,69.198,77.425,74.428V346.634
			C205.103,347.552,184.84,351.087,165.325,357.238z"/>
	</g>
</g>
<g>
	<g>
		<path d="M128.048,405.485c-1.725,0.219-3.443,0.485-5.203,0.485c-11.116,0-21.462-4.211-29.327-11.567
			c-6.198,4.695-12.213,9.761-18.057,15.206c26.565,24.757,57.682,42.947,91.628,53.277
			C152.415,448.322,139.205,428.969,128.048,405.485z"/>
	</g>
</g>
<g>
	<g>
		<path d="M148.118,74.941c0.18,0.131,0.337,0.288,0.515,0.421c0.711,0.532,1.377,1.108,2.053,1.684
			c0.814,0.692,1.602,1.406,2.36,2.156c0.621,0.614,1.233,1.231,1.816,1.883c0.81,0.906,1.559,1.858,2.29,2.828
			c0.419,0.557,0.872,1.086,1.265,1.662c1.051,1.542,1.996,3.153,2.841,4.822c0.263,0.521,0.469,1.064,0.71,1.595
			c0.58,1.271,1.112,2.56,1.568,3.884c0.222,0.652,0.418,1.307,0.61,1.969c0.385,1.324,0.697,2.667,0.954,4.032
			c0.114,0.611,0.249,1.213,0.337,1.833c0.283,1.975,0.469,3.974,0.469,6.005c0,1.919-0.33,3.79-0.58,5.674
			c19.515,6.15,39.779,9.685,60.218,10.602V0.502C196.284,5.731,168.77,32.062,148.118,74.941z"/>
	</g>
</g>
<g>
	<g>
		<path d="M157.274,135.423c-6.566,8.802-16.239,14.809-27.144,16.677c-0.313,0.052-0.61,0.159-0.926,0.205
			c-1.18,0.176-2.395,0.189-3.597,0.268c-0.917,0.058-1.815,0.203-2.741,0.203c-4.567,23.49-7.041,47.907-7.625,72.767h110.301
			v-77.961C202.213,146.622,179.347,142.555,157.274,135.423z"/>
	</g>
</g>
<g>
	<g>
		<path d="M75.462,63.016c5.847,5.446,11.862,10.516,18.063,15.212c7.884-7.37,18.217-11.572,29.321-11.572
			c1.752,0,3.474,0.271,5.2,0.49c11.158-23.489,24.369-42.847,39.046-57.416C133.14,20.063,102.019,38.255,75.462,63.016z"/>
	</g>
</g>
<g>
	<g>
		<path d="M130.425,89.678c-2.628-1.03-5.035-1.493-7.58-1.493c-7.58,0-14.486,3.911-18.481,10.45
			c-1.976,3.311-3.048,7.17-3.048,11.08c0,9.724,6.497,18.24,15.79,20.71c0.832,0.231,1.643,0.318,2.462,0.454
			c9.747,1.57,19.185-3.745,23.01-12.533c1.208-2.796,1.797-5.624,1.797-8.631C144.375,100.665,138.899,92.801,130.425,89.678z"/>
	</g>
</g>
<g>
	<g>
		<path d="M305.524,9.73c14.676,14.566,27.887,33.923,39.044,57.411c1.725-0.219,3.443-0.485,5.202-0.485
			c11.116,0,21.462,4.21,29.327,11.566c6.198-4.695,12.212-9.763,18.057-15.206C370.596,38.255,339.476,20.063,305.524,9.73z"/>
	</g>
</g>
<g>
	<g>
		<path d="M79.786,109.715c0-4.526,0.795-8.983,2.178-13.261c-7.443-5.551-14.639-11.603-21.602-18.116
			C23.57,119.09,2.457,170.594,0,225.542h93.743c0.599-26.73,3.413-52.936,8.409-78.205C88.686,139.97,79.786,125.71,79.786,109.715
			z"/>
	</g>
</g>
<g>
	<g>
		<path d="M142.567,354.269c-0.754-1.74-1.794-3.285-2.938-4.725c-0.249-0.313-0.485-0.633-0.75-0.93
			c-1.163-1.305-2.468-2.464-3.903-3.442c-0.315-0.215-0.653-0.391-0.979-0.589c-1.438-0.871-2.958-1.61-4.575-2.128
			c-0.159-0.051-0.307-0.132-0.468-0.179c-1.728-0.509-3.554-0.731-5.408-0.794c-0.45-0.013-0.9-0.026-1.354-0.01
			c-1.637,0.055-3.336,0.241-4.972,0.696c-9.409,2.491-15.906,11.017-15.906,20.741c0,3.911,1.072,7.77,3.102,11.154
			c5.267,8.631,16.21,12.752,25.787,8.968c8.694-3.207,14.171-11.07,14.171-20.122C144.375,359.904,143.786,357.076,142.567,354.269
			z"/>
	</g>
</g>
<g>
	<g>
		<path d="M102.155,325.303c-4.998-25.273-7.812-51.487-8.412-78.23H0c2.458,54.962,23.577,106.476,60.361,147.216
			c6.965-6.516,14.163-12.569,21.609-18.122c-1.39-4.285-2.183-8.736-2.183-13.257C79.786,346.933,88.665,332.692,102.155,325.303z"
			/>
	</g>
</g>
<g>
	<g>
		<path d="M378.882,247.073c-0.599,26.718-3.415,52.925-8.417,78.214c13.461,7.363,22.365,21.621,22.365,37.623
			c0,4.527-0.794,8.984-2.178,13.262c7.442,5.551,14.638,11.601,21.602,18.116c36.792-40.76,57.905-92.264,60.363-147.215H378.882z"
			/>
	</g>
</g>
<g>
	<g>
		<path d="M323.979,397.26c-0.702-0.525-1.36-1.091-2.026-1.658c-0.834-0.707-1.639-1.438-2.413-2.206
			c-0.605-0.599-1.198-1.197-1.765-1.83c-0.845-0.942-1.624-1.932-2.382-2.942c-0.389-0.519-0.813-1.009-1.179-1.546
			c-1.063-1.559-2.018-3.187-2.871-4.875c-0.244-0.483-0.433-0.991-0.66-1.484c-0.6-1.306-1.146-2.635-1.614-4.002
			c-0.215-0.63-0.405-1.264-0.591-1.905c-0.39-1.34-0.707-2.702-0.966-4.085c-0.112-0.604-0.245-1.194-0.332-1.805
			c-0.283-1.977-0.47-3.979-0.47-6.013c0-1.918,0.33-3.79,0.58-5.673c-19.515-6.15-39.778-9.685-60.218-10.602v125.479
			c29.253-5.23,56.774-31.56,77.425-74.428C324.315,397.555,324.158,397.395,323.979,397.26z"/>
	</g>
</g>
<g>
	<g>
		<path d="M379.09,394.398c-7.884,7.37-18.216,11.572-29.32,11.572c-1.752,0-3.474-0.271-5.201-0.49
			c-11.157,23.486-24.37,42.843-39.047,57.407c33.955-10.331,65.077-28.52,91.631-53.278
			C391.307,404.164,385.29,399.095,379.09,394.398z"/>
	</g>
</g>
<g>
	<g>
		<path d="M412.254,78.336c-6.964,6.518-14.163,12.57-21.608,18.124c1.39,4.285,2.183,8.736,2.183,13.256
			c0,15.971-8.873,30.208-22.367,37.603c5.006,25.295,7.821,51.508,8.42,78.224h93.734
			C470.157,170.58,449.037,119.069,412.254,78.336z"/>
	</g>
</g>
<g>
	<g>
		<path d="M368.198,98.561c-3.942-6.465-10.849-10.376-18.428-10.376c-2.544,0-4.952,0.463-7.359,1.409
			c-8.694,3.206-14.171,11.07-14.171,20.121c0,3.007,0.589,5.835,1.808,8.642c4.121,9.493,14.833,15.054,25.346,12.1
			c9.409-2.502,15.905-11.018,15.905-20.742C371.299,105.805,370.227,101.947,368.198,98.561z"/>
	</g>
</g>
<g>
	<g>
		<path d="M247.072,247.073v78.037c23.176,0.954,46.166,4.982,68.261,12.102c0.977-1.31,2.009-2.556,3.118-3.737
			c0.286-0.299,0.572-0.591,0.865-0.883c1.603-1.608,3.312-3.085,5.142-4.416c0.062-0.046,0.12-0.094,0.183-0.14
			c5.952-4.282,12.954-7.022,20.449-7.841c0.503-0.057,1.007-0.074,1.513-0.112c1.049-0.077,2.081-0.232,3.143-0.232
			c4.575-23.516,7.051-47.934,7.635-72.778H247.072z"/>
	</g>
</g>
<g>
	<g>
		<path d="M247.072,0.502v125.49c20.44-0.918,40.703-4.452,60.218-10.602c-0.25-1.885-0.58-3.755-0.58-5.674
			c0-2.034,0.187-4.034,0.47-6.01c0.087-0.609,0.219-1.204,0.332-1.806c0.261-1.387,0.579-2.753,0.972-4.098
			c0.184-0.632,0.37-1.258,0.583-1.879c0.484-1.416,1.051-2.792,1.676-4.144c0.203-0.436,0.369-0.885,0.585-1.315
			c0.876-1.736,1.865-3.41,2.963-5.009c0.258-0.376,0.557-0.719,0.827-1.087c0.893-1.217,1.836-2.389,2.852-3.506
			c0.434-0.479,0.886-0.932,1.342-1.392c0.986-0.992,2.021-1.928,3.104-2.823c0.462-0.381,0.906-0.772,1.383-1.133
			c0.241-0.183,0.455-0.395,0.699-0.572C303.845,32.062,276.331,5.731,247.072,0.502z"/>
	</g>
</g>
<g>
	<g>
		<path d="M355.509,342.201c-1.763-0.49-3.487-0.686-5.15-0.736c-0.412-0.014-0.819-0.002-1.228,0.009
			c-1.887,0.056-3.746,0.287-5.503,0.806c-0.118,0.035-0.225,0.096-0.342,0.133c-1.667,0.525-3.231,1.287-4.708,2.187
			c-0.306,0.187-0.625,0.353-0.923,0.554c-1.445,0.986-2.761,2.152-3.932,3.467c-0.259,0.29-0.491,0.605-0.736,0.909
			c-1.15,1.444-2.193,2.994-2.952,4.739c-1.208,2.807-1.797,5.635-1.797,8.641c0,9.052,5.476,16.915,13.95,20.037
			c10.46,4.09,20.72-0.221,26.061-8.956c1.976-3.311,3.048-7.17,3.048-11.081C371.299,353.186,364.803,344.66,355.509,342.201z"/>
	</g>
</g>
<g>
	<g>
		<path d="M349.748,152.775c-0.927,0-1.824-0.145-2.741-0.203c-1.202-0.079-2.417-0.092-3.597-0.268
			c-0.315-0.046-0.613-0.153-0.927-0.207c-10.906-1.867-20.579-7.875-27.142-16.676c-22.072,7.134-44.939,11.2-68.269,12.16v77.961
			h110.31C356.799,200.702,354.323,176.29,349.748,152.775z"/>
	</g>
</g>
</svg>